<svg width="19" height="26" viewBox="0 0 19 26" fill="none" xmlns="http://www.w3.org/2000/svg">
<g clip-path="url(#clip0_993_348)">
<path d="M4.80491 18.4128C4.37493 17.9715 4.59907 18.0959 3.56199 17.811C3.09144 17.6815 2.6778 17.4327 2.30373 17.1346L0.0588624 22.7835C-0.158351 23.3304 0.247378 23.9246 0.822326 23.9022L3.42938 23.8002L5.22251 25.7441C5.61834 26.1726 6.31303 26.0391 6.53024 25.4922L9.10563 19.0115C8.56928 19.3182 7.97405 19.498 7.35852 19.498C6.39368 19.498 5.48722 19.1125 4.80491 18.4128V18.4128ZM18.9401 22.7835L16.6952 17.1346C16.3212 17.4332 15.9075 17.6815 15.437 17.811C14.3945 18.0974 14.6231 17.9725 14.1941 18.4128C13.5118 19.1125 12.6048 19.498 11.64 19.498C11.0244 19.498 10.4292 19.3177 9.89285 19.0115L12.4682 25.4922C12.6855 26.0391 13.3806 26.1726 13.776 25.7441L15.5696 23.8002L18.1767 23.9022C18.7516 23.9246 19.1573 23.3299 18.9401 22.7835V22.7835ZM13.0125 17.2636C13.7686 16.4739 13.8551 16.542 14.9318 16.2409C15.6191 16.0484 16.1564 15.4873 16.3405 14.7692C16.7106 13.327 16.6146 13.5012 17.6245 12.446C18.1277 11.9204 18.3241 11.1541 18.14 10.4361C17.7704 8.99488 17.7699 9.19597 18.14 7.75328C18.3241 7.03523 18.1277 6.26894 17.6245 5.74336C16.6146 4.68812 16.7106 4.8618 16.3405 3.42012C16.1564 2.70207 15.6191 2.14094 14.9318 1.94848C13.5523 1.56203 13.7186 1.66308 12.7077 0.607343C12.2045 0.0817571 11.4707 -0.123907 10.7835 0.068554C9.40449 0.454491 9.59696 0.454999 8.2155 0.068554C7.52824 -0.123907 6.79446 0.0812493 6.29126 0.607343C5.28139 1.66258 5.44764 1.56203 4.06767 1.94848C3.3804 2.14094 2.84306 2.70207 2.65899 3.42012C2.28938 4.8618 2.38488 4.68812 1.37501 5.74336C0.871805 6.26894 0.674878 7.03523 0.859435 7.75328C1.22904 9.19343 1.22954 8.99234 0.859435 10.4355C0.675373 11.1536 0.871805 11.9199 1.37501 12.446C2.38488 13.5012 2.28889 13.327 2.65899 14.7692C2.84306 15.4873 3.3804 16.0484 4.06767 16.2409C5.17501 16.5506 5.25764 16.5019 5.98647 17.2636C6.64108 17.9476 7.66084 18.07 8.44756 17.5591C8.76216 17.3542 9.1271 17.2453 9.49974 17.2453C9.87237 17.2453 10.2373 17.3542 10.5519 17.5591C11.3381 18.07 12.3579 17.9476 13.0125 17.2636ZM4.83162 8.93343C4.83162 6.24051 6.92162 4.05742 9.49949 4.05742C12.0774 4.05742 14.1674 6.24051 14.1674 8.93343C14.1674 11.6264 12.0774 13.8094 9.49949 13.8094C6.92162 13.8094 4.83162 11.6264 4.83162 8.93343V8.93343Z" fill="white"/>
</g>
<defs>
<clipPath id="clip0_993_348">
<rect width="19" height="26" fill="white"/>
</clipPath>
</defs>
</svg>
