<svg width="30" height="27" viewBox="0 0 30 27" fill="none" xmlns="http://www.w3.org/2000/svg">
<path d="M14.9004 12.7044C17.5905 12.7044 19.6828 10.5697 19.6828 7.94993C19.6828 5.33012 17.4909 3.29248 14.8007 3.29248C12.1106 3.29248 10.0183 5.42715 10.0183 7.94993C10.0183 10.5697 12.2103 12.7044 14.9004 12.7044ZM14.8007 5.23309C14.9004 5.23309 14.9004 5.23309 14.8007 5.23309C16.3949 5.23309 17.6901 6.49448 17.6901 8.04696C17.6901 9.59945 16.3949 10.7638 14.8007 10.7638C13.2066 10.7638 12.011 9.50242 12.011 8.04696C12.011 6.49448 13.3062 5.23309 14.8007 5.23309Z" fill="white"/>
<path d="M29.6462 12.122C27.7531 10.4725 25.2623 9.59924 22.6718 9.69627H21.8747C21.6755 10.4725 21.3766 11.1517 20.978 11.7339C21.5758 11.6369 22.074 11.6369 22.6718 11.6369C24.5649 11.5398 26.4579 12.122 27.9524 13.1894V20.1755H29.9451V12.4131L29.6462 12.122Z" fill="white"/>
<path d="M20.3802 3.4859C20.8784 2.32154 22.2733 1.73936 23.5685 2.22451C24.7641 2.70966 25.3619 4.06808 24.8638 5.32948C24.4652 6.20275 23.5685 6.78493 22.6718 6.78493C22.4725 6.78493 22.1736 6.78493 21.9744 6.6879C22.074 7.17305 22.074 7.6582 22.074 8.04632V8.6285C22.2733 8.6285 22.4725 8.72553 22.6718 8.72553C25.1627 8.72553 27.1554 6.78493 27.1554 4.4562C27.1554 2.03045 25.1627 0.0898438 22.7714 0.0898438C21.1773 0.0898438 19.7824 0.866085 18.9854 2.22451C19.4835 2.5156 19.9817 2.90372 20.3802 3.4859Z" fill="white"/>
<path d="M9.022 11.8308C8.62346 11.2487 8.32456 10.5694 8.12529 9.7932H7.32822C4.73773 9.69617 2.24688 10.5694 0.353834 12.1219L0.0549316 12.413V20.1754H2.04761V13.1893C3.64176 12.1219 5.43517 11.5397 7.32822 11.6368C7.92602 11.6368 8.52383 11.7338 9.022 11.8308Z" fill="white"/>
<path d="M7.32814 8.62915C7.52741 8.62915 7.72668 8.62915 7.92594 8.53212V7.94994C7.92594 7.46479 7.92594 6.97963 8.02558 6.59151C7.82631 6.68854 7.52741 6.68854 7.32814 6.68854C6.0329 6.68854 4.93692 5.62121 4.93692 4.35982C4.93692 3.09843 6.0329 2.03109 7.32814 2.03109C8.32448 2.03109 9.22119 2.61327 9.61972 3.48655C10.0183 3.0014 10.6161 2.51624 11.1142 2.12812C9.81899 0.0904882 7.12887 -0.588723 5.03656 0.67267C2.94424 1.93406 2.2468 4.55388 3.54205 6.59151C4.33912 7.85291 5.734 8.62915 7.32814 8.62915Z" fill="white"/>
<path d="M23.0704 17.9437L22.8711 17.6526C20.8784 15.518 18.0887 14.2566 15.0997 14.3536C12.1106 14.2566 9.22125 15.518 7.22856 17.6526L7.0293 17.9437V25.318C7.0293 26.1913 7.72674 26.9675 8.72308 26.9675H21.4762C22.3729 26.9675 23.17 26.1913 23.17 25.318V17.9437H23.0704ZM21.0777 25.0269H9.02198V18.6229C10.6161 17.0705 12.8081 16.2942 15.0997 16.2942C17.2916 16.1972 19.4836 17.0705 21.0777 18.6229V25.0269Z" fill="white"/>
</svg>
