<svg width="32" height="19" viewBox="0 0 32 19" fill="none" xmlns="http://www.w3.org/2000/svg">
<path d="M28.7668 8.18805C28.3831 8.19084 28.0031 8.26405 27.6449 8.40417L23.818 5.21436C23.9122 4.86662 23.9792 4.50588 23.9792 4.12564C23.9792 1.87344 22.2014 0.0632324 19.9896 0.0632324C17.7777 0.0632324 15.9999 1.87344 15.9999 4.12564C15.9999 4.76912 16.1595 5.36874 16.418 5.90822L11.7757 11.4948C11.5899 11.4594 11.4014 11.4404 11.2124 11.438C10.9267 11.438 10.657 11.4867 10.3953 11.5582L6.30511 7.39344C6.37693 7.12857 6.4248 6.85395 6.4248 6.56308C6.4248 4.76262 5.0013 3.31316 3.23309 3.31316C1.46488 3.31316 0.0413818 4.76262 0.0413818 6.56308C0.0413818 8.36354 1.46488 9.81301 3.23309 9.81301C3.51875 9.81301 3.78845 9.76426 4.05017 9.69276L8.14035 13.8575C8.06363 14.1275 8.02337 14.4069 8.02066 14.6879C8.02066 16.4884 9.44416 17.9378 11.2124 17.9378C12.9806 17.9378 14.4041 16.4884 14.4041 14.6879C14.4041 14.3028 14.3275 13.9404 14.2078 13.5975L18.8565 8.00442C19.2188 8.11167 19.5938 8.18805 19.9896 8.18805C20.6194 8.1845 21.2392 8.02796 21.7977 7.73143L25.6261 10.9212C25.5961 11.0919 25.579 11.2646 25.5751 11.438C25.5751 13.2384 26.9986 14.6879 28.7668 14.6879C30.535 14.6879 31.9585 13.2384 31.9585 11.438C31.9585 9.63751 30.535 8.18805 28.7668 8.18805Z" fill="white"/>
</svg>
