<svg width="0" height="0" class="icon">
  <symbol fill="none" xmlns="http://www.w3.org/2000/svg" viewBox="0 0 19 20" id="star-white">
    <path d="M4.53239 12.1308L3.16571 18.0488C3.12339 18.228 3.1361 18.4158 3.20217 18.5877C3.26824 18.7596 3.3846 18.9075 3.53606 19.0122C3.68752 19.1169 3.86704 19.1735 4.05117 19.1746C4.23529 19.1757 4.41547 19.1212 4.56816 19.0183L9.5625 15.6888L14.5568 19.0183C14.7131 19.1221 14.8973 19.1755 15.0848 19.1714C15.2723 19.1673 15.4541 19.1058 15.6056 18.9953C15.7571 18.8849 15.8712 18.7306 15.9325 18.5534C15.9937 18.3761 15.9993 18.1844 15.9483 18.0039L14.2707 12.1336L18.4312 8.38944C18.5645 8.26946 18.6597 8.11304 18.705 7.93955C18.7503 7.76605 18.7437 7.58308 18.6861 7.41327C18.6286 7.24345 18.5225 7.09424 18.381 6.98408C18.2395 6.87392 18.0688 6.80764 17.8901 6.79345L12.6609 6.37703L10.3981 1.36801C10.326 1.20672 10.2087 1.06976 10.0604 0.973657C9.91211 0.877554 9.7392 0.826416 9.5625 0.826416C9.38581 0.826416 9.21289 0.877554 9.06462 0.973657C8.91635 1.06976 8.79906 1.20672 8.7269 1.36801L6.46409 6.37703L1.23493 6.79254C1.05924 6.80645 0.891281 6.87069 0.751143 6.97757C0.611005 7.08445 0.504625 7.22943 0.44473 7.39518C0.384835 7.56094 0.37396 7.74044 0.413408 7.91221C0.452856 8.08398 0.540955 8.24074 0.667166 8.36376L4.53239 12.1308ZM7.14926 8.16288C7.31298 8.14998 7.47022 8.09328 7.60449 7.99871C7.73875 7.90414 7.84511 7.77519 7.9124 7.62538L9.5625 3.97387L11.2126 7.62538C11.2799 7.77519 11.3863 7.90414 11.5205 7.99871C11.6548 8.09328 11.812 8.14998 11.9757 8.16288L15.619 8.45181L12.6187 11.1521C12.3582 11.387 12.2546 11.7484 12.35 12.0859L13.4993 16.108L10.0725 13.8231C9.92207 13.7222 9.74503 13.6683 9.56388 13.6683C9.38273 13.6683 9.20568 13.7222 9.05527 13.8231L5.47439 16.2107L6.43749 12.0409C6.4728 11.8876 6.46806 11.7277 6.42372 11.5767C6.37939 11.4257 6.29695 11.2887 6.18433 11.1787L3.39777 8.4619L7.14926 8.16288Z" fill="#F3CD03"></path>
  </symbol>
  <symbol fill="none" xmlns="http://www.w3.org/2000/svg" viewBox="0 0 19 20" id="star-gold">
    <path d="M18.6308 7.41243C18.5732 7.24262 18.467 7.09341 18.3256 6.98322C18.1841 6.87303 18.0134 6.80669 17.8347 6.79238L12.6055 6.37688L10.3427 1.36786C10.2706 1.20653 10.1534 1.0695 10.0052 0.97332C9.85696 0.877135 9.68407 0.825903 9.50738 0.825806C9.33069 0.825709 9.15774 0.876751 9.00941 0.972773C8.86109 1.0688 8.74372 1.20569 8.67148 1.36694L6.40867 6.37688L1.17951 6.79238C1.00382 6.8063 0.835861 6.87054 0.695723 6.97742C0.555585 7.08429 0.449205 7.22928 0.38931 7.39503C0.329415 7.56079 0.318541 7.74028 0.357988 7.91205C0.397436 8.08383 0.485535 8.24059 0.611746 8.36361L4.47605 12.1307L3.10937 18.0487C3.06788 18.2278 3.08118 18.4153 3.14755 18.5868C3.21392 18.7583 3.3303 18.9058 3.48159 19.0103C3.63288 19.1149 3.81208 19.1715 3.99596 19.1729C4.17983 19.1743 4.35988 19.1204 4.51274 19.0182L9.50708 15.6886L14.5014 19.0182C14.6577 19.1219 14.8419 19.1753 15.0294 19.1712C15.2169 19.1671 15.3986 19.1057 15.5502 18.9952C15.7017 18.8847 15.8158 18.7305 15.8771 18.5532C15.9383 18.376 15.9438 18.1842 15.8929 18.0037L14.2152 12.1334L18.3758 8.38929C18.6482 8.14347 18.7482 7.76007 18.6308 7.41243Z" fill="#F3CD03"></path>
  </symbol>



    <symbol fill="none" xmlns="http://www.w3.org/2000/svg" viewBox="0 0 32 27" id="image-1">
    <path d="M28.3925 5.68369H25.0127V2.30395C25.0127 1.70637 24.7753 1.13327 24.3528 0.710718C23.9302 0.288167 23.3571 0.0507813 22.7596 0.0507812H9.24056C8.64299 0.0507813 8.06989 0.288167 7.64734 0.710718C7.22479 1.13327 6.9874 1.70637 6.9874 2.30395V5.68369H3.60765C2.71129 5.68369 1.85164 6.03977 1.21781 6.6736C0.583985 7.30742 0.227905 8.16708 0.227905 9.06344V24.8356C0.227905 25.4332 0.465291 26.0063 0.887842 26.4288C1.31039 26.8514 1.88349 27.0888 2.48107 27.0888H29.519C30.1166 27.0888 30.6897 26.8514 31.1123 26.4288C31.5348 26.0063 31.7722 25.4332 31.7722 24.8356V9.06344C31.7722 8.16708 31.4161 7.30742 30.7823 6.6736C30.1485 6.03977 29.2888 5.68369 28.3925 5.68369ZM9.24056 2.30395H22.7596V5.68369H9.24056V2.30395ZM29.519 24.8356H2.48107V14.6964H11.4937V20.3293H20.5064V14.6964H29.519V24.8356ZM13.7469 14.6964H18.2532V18.0761H13.7469V14.6964ZM2.48107 12.4432V9.06344C2.48107 8.76465 2.59976 8.4781 2.81104 8.26683C3.02231 8.05555 3.30886 7.93686 3.60765 7.93686H28.3925C28.6912 7.93686 28.9778 8.05555 29.1891 8.26683C29.4004 8.4781 29.519 8.76465 29.519 9.06344V12.4432H2.48107Z" fill="white"></path>
  </symbol>


  <symbol fill="none" xmlns="http://www.w3.org/2000/svg" viewBox="0 0 19 26" id="image-2">
    <path d="M4.8049 18.4128C4.37493 17.9715 4.59907 18.0959 3.56199 17.811C3.09144 17.6815 2.6778 17.4327 2.30373 17.1346L0.0588624 22.7835C-0.158351 23.3304 0.247378 23.9246 0.822326 23.9022L3.42938 23.8001L5.22251 25.7441C5.61834 26.1726 6.31303 26.0391 6.53024 25.4922L9.10563 19.0115C8.56928 19.3182 7.97405 19.498 7.35852 19.498C6.39368 19.498 5.48722 19.1125 4.8049 18.4128ZM18.9401 22.7835L16.6952 17.1346C16.3212 17.4332 15.9075 17.6815 15.437 17.811C14.3945 18.0974 14.6231 17.9725 14.1941 18.4128C13.5118 19.1125 12.6048 19.498 11.64 19.498C11.0244 19.498 10.4292 19.3177 9.89285 19.0115L12.4682 25.4922C12.6855 26.0391 13.3806 26.1726 13.776 25.7441L15.5696 23.8001L18.1767 23.9022C18.7516 23.9246 19.1573 23.3299 18.9401 22.7835ZM13.0125 17.2636C13.7686 16.4739 13.8551 16.542 14.9318 16.2409C15.6191 16.0484 16.1564 15.4873 16.3405 14.7692C16.7106 13.327 16.6146 13.5012 17.6245 12.446C18.1277 11.9204 18.3241 11.1541 18.14 10.4361C17.7704 8.99488 17.7699 9.19597 18.14 7.75328C18.3241 7.03523 18.1277 6.26894 17.6245 5.74336C16.6146 4.68812 16.7106 4.86179 16.3405 3.42012C16.1564 2.70207 15.6191 2.14094 14.9318 1.94848C13.5523 1.56203 13.7186 1.66308 12.7077 0.607343C12.2045 0.0817571 11.4707 -0.123907 10.7835 0.068554C9.40449 0.454491 9.59696 0.454999 8.2155 0.068554C7.52824 -0.123907 6.79446 0.0812493 6.29126 0.607343C5.28139 1.66258 5.44764 1.56203 4.06767 1.94848C3.3804 2.14094 2.84306 2.70207 2.65899 3.42012C2.28938 4.86179 2.38488 4.68812 1.37501 5.74336C0.871805 6.26894 0.674878 7.03523 0.859435 7.75328C1.22904 9.19343 1.22954 8.99234 0.859435 10.4355C0.675373 11.1536 0.871805 11.9199 1.37501 12.446C2.38488 13.5012 2.28889 13.327 2.65899 14.7692C2.84306 15.4873 3.3804 16.0484 4.06767 16.2409C5.17501 16.5506 5.25764 16.5019 5.98647 17.2636C6.64108 17.9476 7.66084 18.07 8.44756 17.5591C8.76216 17.3542 9.1271 17.2453 9.49974 17.2453C9.87237 17.2453 10.2373 17.3542 10.5519 17.5591C11.3381 18.07 12.3579 17.9476 13.0125 17.2636ZM4.83162 8.93343C4.83162 6.24051 6.92162 4.05742 9.49949 4.05742C12.0774 4.05742 14.1674 6.24051 14.1674 8.93343C14.1674 11.6264 12.0774 13.8094 9.49949 13.8094C6.92162 13.8094 4.83162 11.6264 4.83162 8.93343Z" fill="white"></path>
  </symbol>

    <symbol fill="none" xmlns="http://www.w3.org/2000/svg" viewBox="0 0 32 26" id="image-3">
    <g clip-path="url(#clip0_993_323)">
      <path d="M19.428 5.74951H27.4266V8.04639H19.428V5.74951Z" fill="white"></path>
      <path d="M19.428 11.4917H27.4266V13.7886H19.428V11.4917Z" fill="white"></path>
      <path d="M19.428 17.2339H27.4266V19.5308H19.428V17.2339Z" fill="white"></path>
      <path d="M29.7119 0.00732422H2.28824C1.68232 0.00793229 1.1014 0.25012 0.672949 0.680736C0.244502 1.11135 0.0035347 1.69522 0.00292969 2.3042V22.9761C0.0035347 23.5851 0.244502 24.169 0.672949 24.5996C1.1014 25.0302 1.68232 25.2724 2.28824 25.273H29.7119C30.3177 25.2721 30.8985 25.0298 31.3269 24.5992C31.7553 24.1687 31.9963 23.585 31.9972 22.9761V2.3042C31.9966 1.69522 31.7557 1.11135 31.3272 0.680736C30.8988 0.25012 30.3178 0.00793229 29.7119 0.00732422ZM2.28824 2.3042H14.8574V22.9761H2.28824V2.3042ZM17.1427 22.9761V2.3042H29.7119L29.7142 22.9761H17.1427Z" fill="white"></path>
    </g>
    <defs>
      <clipPath id="clip0_993_323">
        <rect width="32" height="25.28" fill="white"></rect>
      </clipPath>
    </defs>
  </symbol>

  <symbol fill="none" xmlns="http://www.w3.org/2000/svg" viewBox="0 0 30 27" id="image-4">
    <path d="M14.9004 12.7044C17.5905 12.7044 19.6828 10.5697 19.6828 7.94993C19.6828 5.33012 17.4909 3.29248 14.8007 3.29248C12.1106 3.29248 10.0183 5.42715 10.0183 7.94993C10.0183 10.5697 12.2103 12.7044 14.9004 12.7044ZM14.8007 5.23309C14.9004 5.23309 14.9004 5.23309 14.8007 5.23309C16.3949 5.23309 17.6901 6.49448 17.6901 8.04696C17.6901 9.59945 16.3949 10.7638 14.8007 10.7638C13.2066 10.7638 12.011 9.50242 12.011 8.04696C12.011 6.49448 13.3062 5.23309 14.8007 5.23309Z" fill="white"></path>
    <path d="M29.6462 12.122C27.7531 10.4725 25.2623 9.59924 22.6718 9.69627H21.8747C21.6755 10.4725 21.3766 11.1517 20.978 11.7339C21.5758 11.6369 22.074 11.6369 22.6718 11.6369C24.5649 11.5398 26.4579 12.122 27.9524 13.1894V20.1755H29.9451V12.4131L29.6462 12.122Z" fill="white"></path>
    <path d="M20.3802 3.4859C20.8784 2.32154 22.2733 1.73936 23.5685 2.22451C24.7641 2.70966 25.3619 4.06808 24.8638 5.32948C24.4652 6.20275 23.5685 6.78493 22.6718 6.78493C22.4725 6.78493 22.1736 6.78493 21.9744 6.6879C22.074 7.17305 22.074 7.6582 22.074 8.04632V8.6285C22.2733 8.6285 22.4725 8.72553 22.6718 8.72553C25.1627 8.72553 27.1554 6.78493 27.1554 4.4562C27.1554 2.03045 25.1627 0.0898438 22.7714 0.0898438C21.1773 0.0898438 19.7824 0.866085 18.9854 2.22451C19.4835 2.5156 19.9817 2.90372 20.3802 3.4859Z" fill="white"></path>
    <path d="M9.022 11.8308C8.62346 11.2487 8.32456 10.5694 8.12529 9.7932H7.32822C4.73773 9.69617 2.24688 10.5694 0.353834 12.1219L0.0549316 12.413V20.1754H2.04761V13.1893C3.64176 12.1219 5.43517 11.5397 7.32822 11.6368C7.92602 11.6368 8.52383 11.7338 9.022 11.8308Z" fill="white"></path>
    <path d="M7.32814 8.62915C7.52741 8.62915 7.72668 8.62915 7.92594 8.53212V7.94994C7.92594 7.46479 7.92594 6.97963 8.02558 6.59151C7.82631 6.68854 7.52741 6.68854 7.32814 6.68854C6.0329 6.68854 4.93692 5.62121 4.93692 4.35982C4.93692 3.09843 6.0329 2.03109 7.32814 2.03109C8.32448 2.03109 9.22119 2.61327 9.61972 3.48655C10.0183 3.0014 10.6161 2.51624 11.1142 2.12812C9.81899 0.0904882 7.12887 -0.588723 5.03656 0.67267C2.94424 1.93406 2.2468 4.55388 3.54205 6.59151C4.33912 7.85291 5.734 8.62915 7.32814 8.62915Z" fill="white"></path>
    <path d="M23.0704 17.9437L22.8711 17.6526C20.8784 15.518 18.0887 14.2566 15.0997 14.3536C12.1106 14.2566 9.22125 15.518 7.22856 17.6526L7.0293 17.9437V25.318C7.0293 26.1913 7.72674 26.9675 8.72308 26.9675H21.4762C22.3729 26.9675 23.17 26.1913 23.17 25.318V17.9437H23.0704ZM21.0777 25.0269H9.02198V18.6229C10.6161 17.0705 12.8081 16.2942 15.0997 16.2942C17.2916 16.1972 19.4836 17.0705 21.0777 18.6229V25.0269Z" fill="white"></path>
  </symbol>


  <symbol fill="none" xmlns="http://www.w3.org/2000/svg" viewBox="0 0 32 19" id="image-5">
    <path d="M28.7668 8.18805C28.3831 8.19084 28.0031 8.26405 27.6449 8.40417L23.818 5.21436C23.9122 4.86662 23.9792 4.50588 23.9792 4.12564C23.9792 1.87344 22.2014 0.0632324 19.9896 0.0632324C17.7777 0.0632324 15.9999 1.87344 15.9999 4.12564C15.9999 4.76912 16.1595 5.36874 16.418 5.90822L11.7757 11.4948C11.5899 11.4594 11.4014 11.4404 11.2124 11.438C10.9267 11.438 10.657 11.4867 10.3953 11.5582L6.30511 7.39344C6.37693 7.12857 6.4248 6.85395 6.4248 6.56308C6.4248 4.76262 5.0013 3.31316 3.23309 3.31316C1.46488 3.31316 0.0413818 4.76262 0.0413818 6.56308C0.0413818 8.36354 1.46488 9.81301 3.23309 9.81301C3.51875 9.81301 3.78845 9.76426 4.05017 9.69276L8.14035 13.8575C8.06363 14.1275 8.02337 14.4069 8.02066 14.6879C8.02066 16.4884 9.44416 17.9378 11.2124 17.9378C12.9806 17.9378 14.4041 16.4884 14.4041 14.6879C14.4041 14.3028 14.3275 13.9404 14.2078 13.5975L18.8565 8.00442C19.2188 8.11167 19.5938 8.18805 19.9896 8.18805C20.6194 8.1845 21.2392 8.02796 21.7977 7.73143L25.6261 10.9212C25.5961 11.0919 25.579 11.2646 25.5751 11.438C25.5751 13.2384 26.9986 14.6879 28.7668 14.6879C30.535 14.6879 31.9585 13.2384 31.9585 11.438C31.9585 9.63751 30.535 8.18805 28.7668 8.18805Z" fill="white"></path>
  </symbol>


    <symbol fill="none" xmlns="http://www.w3.org/2000/svg" viewBox="0 0 19 26" id="image-6">
    <g clip-path="url(#clip0_993_348)">
      <path d="M4.80491 18.4128C4.37493 17.9715 4.59907 18.0959 3.56199 17.811C3.09144 17.6815 2.6778 17.4327 2.30373 17.1346L0.0588624 22.7835C-0.158351 23.3304 0.247378 23.9246 0.822326 23.9022L3.42938 23.8002L5.22251 25.7441C5.61834 26.1726 6.31303 26.0391 6.53024 25.4922L9.10563 19.0115C8.56928 19.3182 7.97405 19.498 7.35852 19.498C6.39368 19.498 5.48722 19.1125 4.80491 18.4128V18.4128ZM18.9401 22.7835L16.6952 17.1346C16.3212 17.4332 15.9075 17.6815 15.437 17.811C14.3945 18.0974 14.6231 17.9725 14.1941 18.4128C13.5118 19.1125 12.6048 19.498 11.64 19.498C11.0244 19.498 10.4292 19.3177 9.89285 19.0115L12.4682 25.4922C12.6855 26.0391 13.3806 26.1726 13.776 25.7441L15.5696 23.8002L18.1767 23.9022C18.7516 23.9246 19.1573 23.3299 18.9401 22.7835V22.7835ZM13.0125 17.2636C13.7686 16.4739 13.8551 16.542 14.9318 16.2409C15.6191 16.0484 16.1564 15.4873 16.3405 14.7692C16.7106 13.327 16.6146 13.5012 17.6245 12.446C18.1277 11.9204 18.3241 11.1541 18.14 10.4361C17.7704 8.99488 17.7699 9.19597 18.14 7.75328C18.3241 7.03523 18.1277 6.26894 17.6245 5.74336C16.6146 4.68812 16.7106 4.8618 16.3405 3.42012C16.1564 2.70207 15.6191 2.14094 14.9318 1.94848C13.5523 1.56203 13.7186 1.66308 12.7077 0.607343C12.2045 0.0817571 11.4707 -0.123907 10.7835 0.068554C9.40449 0.454491 9.59696 0.454999 8.2155 0.068554C7.52824 -0.123907 6.79446 0.0812493 6.29126 0.607343C5.28139 1.66258 5.44764 1.56203 4.06767 1.94848C3.3804 2.14094 2.84306 2.70207 2.65899 3.42012C2.28938 4.8618 2.38488 4.68812 1.37501 5.74336C0.871805 6.26894 0.674878 7.03523 0.859435 7.75328C1.22904 9.19343 1.22954 8.99234 0.859435 10.4355C0.675373 11.1536 0.871805 11.9199 1.37501 12.446C2.38488 13.5012 2.28889 13.327 2.65899 14.7692C2.84306 15.4873 3.3804 16.0484 4.06767 16.2409C5.17501 16.5506 5.25764 16.5019 5.98647 17.2636C6.64108 17.9476 7.66084 18.07 8.44756 17.5591C8.76216 17.3542 9.1271 17.2453 9.49974 17.2453C9.87237 17.2453 10.2373 17.3542 10.5519 17.5591C11.3381 18.07 12.3579 17.9476 13.0125 17.2636ZM4.83162 8.93343C4.83162 6.24051 6.92162 4.05742 9.49949 4.05742C12.0774 4.05742 14.1674 6.24051 14.1674 8.93343C14.1674 11.6264 12.0774 13.8094 9.49949 13.8094C6.92162 13.8094 4.83162 11.6264 4.83162 8.93343V8.93343Z" fill="white"></path>
    </g>
    <defs>
      <clipPath id="clip0_993_348">
        <rect width="19" height="26" fill="white"></rect>
      </clipPath>
    </defs>
  </symbol> 


    <symbol xmlns="http://www.w3.org/2000/svg" viewBox="0 0 33 26" id="icon-1">
    <path d="M30.3154 7.36456L28.3167 10.3708C29.2806 12.2933 29.7525 14.4249 29.6901 16.5746C29.6277 18.7243 29.0329 20.825 27.9592 22.6883H5.43666C4.04106 20.2672 3.46277 17.4609 3.78751 14.6853C4.11226 11.9097 5.32277 9.31265 7.23956 7.27913C9.15636 5.2456 11.6774 3.88388 14.429 3.39581C17.1806 2.90775 20.0162 3.31934 22.5154 4.56956L25.5217 2.57081C22.4609 0.608159 18.8304 -0.27131 15.2109 0.0730789C11.5913 0.417467 8.19176 1.96581 5.55609 4.47045C2.92042 6.97509 1.20087 10.2913 0.672515 13.8886C0.144156 17.486 0.837506 21.1566 2.64166 24.3133C2.92524 24.8045 3.33243 25.2129 3.82276 25.498C4.31309 25.7831 4.86949 25.9349 5.43666 25.9383H27.9429C28.5156 25.9406 29.0787 25.7915 29.5752 25.5061C30.0718 25.2208 30.4841 24.8093 30.7704 24.3133C32.2676 21.7197 33.019 18.7627 32.9416 15.769C32.8642 12.7752 31.961 9.86108 30.3317 7.34831L30.3154 7.36456ZM14.4067 18.4796C14.7085 18.7817 15.0669 19.0214 15.4615 19.185C15.856 19.3486 16.2789 19.4327 16.706 19.4327C17.1331 19.4327 17.556 19.3486 17.9506 19.185C18.3451 19.0214 18.7036 18.7817 19.0054 18.4796L28.2029 4.68331L14.4067 13.8808C14.1045 14.1826 13.8648 14.5411 13.7012 14.9356C13.5377 15.3302 13.4535 15.7531 13.4535 16.1802C13.4535 16.6073 13.5377 17.0302 13.7012 17.4247C13.8648 17.8193 14.1045 18.1777 14.4067 18.4796Z"></path>
  </symbol>



    <symbol xmlns="http://www.w3.org/2000/svg" viewBox="0 0 31 30" id="icon-2">
    <path fill-rule="evenodd" clip-rule="evenodd" d="M17.7367 7.77151C17.2729 8.09308 16.7497 8.31905 16.1976 8.43623C15.6456 8.55342 15.0757 8.55949 14.5212 8.45407C13.9668 8.34865 13.4389 8.13385 12.9684 7.82223C12.4979 7.5106 12.0941 7.10838 11.7807 6.63904C11.4673 6.1697 11.2505 5.64263 11.143 5.08861C11.0354 4.53458 11.0393 3.96468 11.1544 3.41218C11.2695 2.85967 11.4935 2.33562 11.8133 1.8706C12.1331 1.40559 12.5423 1.00893 13.017 0.703761C13.9544 0.0846608 15.0986 -0.138187 16.1998 0.0839308C17.3009 0.306048 18.2693 0.955065 18.8933 1.88911C19.5173 2.82315 19.7462 3.96625 19.5298 5.06853C19.3135 6.17081 18.6696 7.14262 17.7388 7.77151H17.7367ZM16.5573 2.47176C16.3259 2.30528 16.0633 2.18706 15.7853 2.12415C15.5072 2.06124 15.2193 2.05493 14.9388 2.10558C14.6583 2.15622 14.3908 2.26281 14.1523 2.41897C13.9138 2.57514 13.7091 2.7777 13.5505 3.0146C13.3919 3.25149 13.2826 3.51788 13.2291 3.79789C13.1756 4.07791 13.179 4.36583 13.239 4.64451C13.2991 4.92319 13.4146 5.18694 13.5788 5.42004C13.7429 5.65315 13.9522 5.85086 14.1943 6.00139C14.662 6.28552 15.2214 6.37824 15.7558 6.26023C16.2902 6.14222 16.7585 5.82258 17.063 5.36789C17.3676 4.9132 17.485 4.35852 17.3908 3.81941C17.2966 3.2803 16.998 2.79833 16.5573 2.47389V2.47176ZM22.1036 2.53551C22.7164 2.12326 23.4539 1.93762 24.1889 2.01054C24.9239 2.08346 25.6105 2.41038 26.1304 2.93501C26.5009 3.30848 26.7741 3.76715 26.926 4.27079C27.078 4.77443 27.104 5.30766 27.0018 5.82371C26.8997 6.33975 26.6724 6.82284 26.3401 7.23061C26.0077 7.63838 25.5804 7.95837 25.0956 8.16251C24.5133 8.40598 23.8715 8.47011 23.2526 8.34669C22.6336 8.22328 22.0656 7.91794 21.6212 7.46976C21.2872 7.13405 21.0315 6.72865 20.8725 6.28259C20.7135 5.83653 20.655 5.36083 20.7013 4.88954C20.7476 4.41825 20.8975 3.96302 21.1403 3.55643C21.3831 3.14984 21.7127 2.80194 22.1057 2.53764L22.1036 2.53551ZM23.1236 5.95676C23.3231 6.15543 23.5933 6.2667 23.8749 6.2661C24.0143 6.2658 24.1523 6.23805 24.2809 6.18443C24.4096 6.13081 24.5265 6.05236 24.6249 5.95357C24.7232 5.85479 24.8012 5.73759 24.8543 5.60868C24.9073 5.47977 24.9345 5.34167 24.9342 5.20226C24.9339 5.06285 24.9062 4.92486 24.8525 4.79618C24.7989 4.66749 24.7205 4.55063 24.6217 4.45226C24.4238 4.25328 24.1564 4.13899 23.8758 4.13351C23.7357 4.13323 23.5968 4.16073 23.4674 4.21442C23.3379 4.26811 23.2204 4.34694 23.1216 4.44633C23.0228 4.54573 22.9447 4.66372 22.8918 4.7935C22.8388 4.92327 22.8122 5.06224 22.8133 5.20239C22.814 5.48539 22.9253 5.7569 23.1236 5.95889V5.95676ZM5.15455 24.3975H9.0008V26.5331H5.15455C4.48123 26.5271 3.8378 26.2542 3.3653 25.7745C2.89099 25.293 2.62533 24.6441 2.6258 23.9683V20.122C2.3397 20.1124 2.0585 20.045 1.79919 19.9237C1.53988 19.8025 1.30783 19.6299 1.11705 19.4165C0.914334 19.2112 0.755241 18.967 0.649338 18.6985C0.543434 18.4301 0.492909 18.1431 0.5008 17.8546V13.2179C0.507175 12.2149 0.90455 11.2565 1.6058 10.5446C2.30493 9.84126 3.25055 9.43964 4.2408 9.43326H8.1508C7.6234 10.0614 7.22612 10.788 6.98205 11.571H4.2408C3.80951 11.5834 3.39915 11.7597 3.0933 12.064C2.79287 12.3729 2.6251 12.787 2.6258 13.2179V17.9609H4.7508V23.9661C4.74587 24.024 4.75275 24.0823 4.77101 24.1375C4.78928 24.1926 4.81855 24.2435 4.85705 24.287C4.94247 24.353 5.04664 24.3902 5.15455 24.3933V24.3975ZM20.667 10.5468C20.3193 10.1957 19.9057 9.91675 19.4498 9.72602C18.994 9.53529 18.5049 9.43653 18.0108 9.43539H12.7408C11.7502 9.44331 10.8029 9.84284 10.1058 10.5468C9.40455 11.2586 9.00718 12.217 9.0008 13.22V19.9733C8.9978 20.5531 9.21853 21.1118 9.61705 21.533C9.80806 21.7462 10.0402 21.9185 10.2994 22.0397C10.5587 22.161 10.8398 22.2286 11.1258 22.2385V27.1749C11.1238 27.5118 11.1885 27.8458 11.3161 28.1576C11.4438 28.4695 11.6319 28.7529 11.8696 28.9918C12.2521 29.3488 12.7344 29.5804 13.2508 29.6548H17.5008C18.0985 29.5763 18.6461 29.2797 19.0384 28.8219C19.4306 28.3642 19.6398 27.7776 19.6258 27.1749V22.2364C19.9119 22.2268 20.1931 22.1594 20.4524 22.0381C20.7117 21.9169 20.9438 21.7443 21.1346 21.5309C21.3371 21.3259 21.4961 21.082 21.602 20.814C21.7079 20.5459 21.7585 20.2592 21.7508 19.9711V13.2179C21.7523 12.2195 21.3633 11.2601 20.667 10.5446V10.5468ZM19.6258 20.0774H17.5008V27.1749C17.4987 27.2869 17.453 27.3937 17.3733 27.4724C17.337 27.5153 17.2913 27.5492 17.2396 27.5713C17.188 27.5935 17.1319 27.6032 17.0758 27.5999H13.6546C13.5435 27.5947 13.4384 27.5483 13.3598 27.4697C13.2812 27.3911 13.2347 27.2859 13.2296 27.1749V20.0774H11.1258V13.2179C11.1258 12.7865 11.2937 12.3721 11.5933 12.064C11.8992 11.7597 12.3095 11.5834 12.7408 11.571H18.0108C18.3327 11.5767 18.646 11.6762 18.9121 11.8574C19.1782 12.0386 19.3857 12.2936 19.5089 12.591C19.5898 12.7899 19.6296 13.0032 19.6258 13.2179V20.0774ZM25.5971 26.531H21.7508V24.3954H25.5758C25.6837 24.3924 25.7879 24.3552 25.8733 24.2891C25.9161 24.2473 25.9496 24.1969 25.9715 24.1413C25.9935 24.0856 26.0035 24.0259 26.0008 23.9661V17.9609H28.1258V13.2179C28.1265 12.787 27.9587 12.3729 27.6583 12.064C27.3524 11.7597 26.9421 11.5834 26.5108 11.571H23.7696C23.5256 10.788 23.1283 10.0613 22.6008 9.43326H26.5108C27.5012 9.44234 28.4481 9.84169 29.1458 10.5446C29.847 11.2565 30.2444 12.2149 30.2508 13.2179V17.8546C30.2508 18.4348 30.0319 18.9915 29.6367 19.4123C29.2414 19.8351 28.7017 20.088 28.1258 20.1199V23.9661C28.1258 24.644 27.8602 25.2921 27.3863 25.7724C26.9138 26.2521 26.2704 26.5249 25.5971 26.531ZM6.8758 1.99576C6.24346 1.99503 5.62531 2.18314 5.10057 2.536C4.57583 2.88885 4.16842 3.39037 3.93055 3.97626C3.69049 4.56195 3.62817 5.20536 3.75136 5.82623C3.87456 6.4471 4.17781 7.01797 4.6233 7.46764C5.06863 7.91678 5.63774 8.22298 6.25793 8.34712C6.87812 8.47126 7.52124 8.4077 8.10514 8.16456C8.68903 7.92142 9.18719 7.50975 9.53598 6.98212C9.88478 6.45449 10.0684 5.83486 10.0633 5.20239C10.0633 4.35239 9.72755 3.53639 9.1283 2.93501C8.83323 2.63779 8.48233 2.40181 8.09577 2.24063C7.70921 2.07944 7.29462 1.99622 6.8758 1.99576ZM6.8758 6.27126C6.73565 6.27155 6.59684 6.24405 6.46739 6.19035C6.33793 6.13666 6.22041 6.05784 6.1216 5.95844C6.0228 5.85905 5.94468 5.74105 5.89176 5.61128C5.83885 5.48151 5.81218 5.34253 5.8133 5.20239C5.81385 4.92017 5.92577 4.64959 6.12473 4.44944C6.32368 4.24928 6.5936 4.13575 6.8758 4.13351C7.15714 4.13847 7.42548 4.25287 7.62386 4.45244C7.82223 4.652 7.93503 4.92102 7.9383 5.20239C7.93775 5.4846 7.82583 5.75519 7.62688 5.95534C7.42792 6.15549 7.158 6.26902 6.8758 6.27126Z"></path>
  </symbol> 


    <symbol fill="none" xmlns="http://www.w3.org/2000/svg" viewBox="0 0 25 30" id="icon-play">
    <g clip-path="url(#clip0_964_9558)">
      <path d="M0.300049 0.800049L24.3 15.2001L0.300049 29.6001V0.800049Z" fill="white"></path>
    </g>
    <defs>
      <clipPath id="clip0_964_9558">
        <rect width="24" height="28.8" fill="white" transform="translate(0.300049 0.800049)"></rect>
      </clipPath>
    </defs>
  </symbol>


  <!-- FOOTER   -->

  <symbol fill="none" xmlns="http://www.w3.org/2000/svg" viewBox="0 0 25 24" id="facebook">
    <path d="M23.54 0H1.46C0.929 0 0.5 0.429 0.5 0.96V23.04C0.5 23.571 0.929 24 1.46 24H23.54C24.071 24 24.5 23.571 24.5 23.04V0.96C24.5 0.429 24.071 0 23.54 0ZM20.768 7.005H18.851C17.348 7.005 17.057 7.719 17.057 8.769V11.082H20.645L20.177 14.703H17.057V24H13.316V14.706H10.187V11.082H13.316V8.412C13.316 5.313 15.209 3.624 17.975 3.624C19.301 3.624 20.438 3.723 20.771 3.768V7.005H20.768Z" fill="#335BF5"></path>
  </symbol>

  <symbol fill="none" xmlns="http://www.w3.org/2000/svg" viewBox="0 0 25 24" id="instagram">
    <path d="M12.5018 5.84744C9.09683 5.84744 6.34883 8.59544 6.34883 12.0004C6.34883 15.4054 9.09683 18.1534 12.5018 18.1534C15.9068 18.1534 18.6548 15.4054 18.6548 12.0004C18.6548 8.59544 15.9068 5.84744 12.5018 5.84744ZM12.5018 15.9994C10.2998 15.9994 8.50283 14.2024 8.50283 12.0004C8.50283 9.79844 10.2998 8.00144 12.5018 8.00144C14.7038 8.00144 16.5008 9.79844 16.5008 12.0004C16.5008 14.2024 14.7038 15.9994 12.5018 15.9994ZM18.9068 4.16144C18.1118 4.16144 17.4698 4.80344 17.4698 5.59844C17.4698 6.39344 18.1118 7.03544 18.9068 7.03544C19.7018 7.03544 20.3438 6.39644 20.3438 5.59844C20.3441 5.40966 20.3071 5.22269 20.2349 5.04824C20.1628 4.87379 20.057 4.71528 19.9235 4.5818C19.79 4.44831 19.6315 4.34247 19.457 4.27034C19.2826 4.19821 19.0956 4.1612 18.9068 4.16144ZM24.4958 12.0004C24.4958 10.3444 24.5108 8.70344 24.4178 7.05044C24.3248 5.13044 23.8868 3.42644 22.4828 2.02244C21.0758 0.615437 19.3748 0.180437 17.4548 0.0874372C15.7988 -0.00556279 14.1578 0.00943725 12.5048 0.00943725C10.8488 0.00943725 9.20783 -0.00556279 7.55483 0.0874372C5.63483 0.180437 3.93083 0.618437 2.52683 2.02244C1.11983 3.42944 0.684832 5.13044 0.591832 7.05044C0.498832 8.70644 0.513832 10.3474 0.513832 12.0004C0.513832 13.6534 0.498832 15.2974 0.591832 16.9504C0.684832 18.8704 1.12283 20.5744 2.52683 21.9784C3.93383 23.3854 5.63483 23.8204 7.55483 23.9134C9.21083 24.0064 10.8518 23.9914 12.5048 23.9914C14.1608 23.9914 15.8018 24.0064 17.4548 23.9134C19.3748 23.8204 21.0788 23.3824 22.4828 21.9784C23.8898 20.5714 24.3248 18.8704 24.4178 16.9504C24.5138 15.2974 24.4958 13.6564 24.4958 12.0004ZM21.8558 19.0744C21.6368 19.6204 21.3728 20.0284 20.9498 20.4484C20.5268 20.8714 20.1218 21.1354 19.5758 21.3544C17.9978 21.9814 14.2508 21.8404 12.5018 21.8404C10.7528 21.8404 7.00283 21.9814 5.42483 21.3574C4.87883 21.1384 4.47083 20.8744 4.05083 20.4514C3.62783 20.0284 3.36383 19.6234 3.14483 19.0774C2.52083 17.4964 2.66183 13.7494 2.66183 12.0004C2.66183 10.2514 2.52083 6.50144 3.14483 4.92344C3.36383 4.37744 3.62783 3.96944 4.05083 3.54944C4.47383 3.12944 4.87883 2.86244 5.42483 2.64344C7.00283 2.01944 10.7528 2.16044 12.5018 2.16044C14.2508 2.16044 18.0008 2.01944 19.5788 2.64344C20.1248 2.86244 20.5328 3.12644 20.9528 3.54944C21.3758 3.97244 21.6398 4.37744 21.8588 4.92344C22.4828 6.50144 22.3418 10.2514 22.3418 12.0004C22.3418 13.7494 22.4828 17.4964 21.8558 19.0744Z" fill="#E61F5A"></path>
  </symbol>

    <symbol fill="none" xmlns="http://www.w3.org/2000/svg" viewBox="0 0 25 20" id="twitter">
    <path d="M24.5004 2.46548C23.6188 2.85141 22.6594 3.12917 21.6711 3.23735C22.6971 2.61879 23.4655 1.64156 23.832 0.489007C22.8692 1.07022 21.8145 1.47778 20.7146 1.6936C20.2549 1.19488 19.6989 0.797581 19.0813 0.526453C18.4636 0.255325 17.7976 0.116179 17.1247 0.117688C14.402 0.117688 12.2123 2.3573 12.2123 5.10564C12.2123 5.49158 12.2584 5.87752 12.3333 6.24884C8.2565 6.03248 4.62048 4.05601 2.2032 1.0299C1.76274 1.79335 1.53193 2.66261 1.53477 3.54727C1.53477 5.27814 2.402 6.80435 3.72444 7.70195C2.94511 7.6708 2.18402 7.45342 1.50308 7.06749V7.12889C1.50308 9.5527 3.19143 11.5613 5.44161 12.0233C5.01912 12.1347 4.58449 12.1916 4.14797 12.1929C3.82817 12.1929 3.52565 12.1607 3.22024 12.1168C3.84257 14.0933 5.65482 15.5289 7.8128 15.5757C6.12444 16.9177 4.00968 17.7071 1.7134 17.7071C1.3014 17.7071 0.921085 17.6925 0.526367 17.6457C2.70452 19.0637 5.28891 19.8824 8.0721 19.8824C17.1074 19.8824 22.0514 12.2864 22.0514 5.69332C22.0514 5.47696 22.0514 5.2606 22.037 5.04424C22.9936 4.33377 23.832 3.45371 24.5004 2.46548Z" fill="#21A6DF"></path>
  </symbol>

    <symbol fill="none" xmlns="http://www.w3.org/2000/svg" viewBox="0 0 25 18" id="youtube">
    <path d="M23.9699 2.93179C23.8335 2.39882 23.5663 1.91289 23.1951 1.52261C22.824 1.13234 22.3619 0.851413 21.855 0.707956C19.9884 0.176758 12.4879 0.176758 12.4879 0.176758C12.4879 0.176758 4.98729 0.176758 3.12071 0.707956C2.61385 0.851413 2.15172 1.13234 1.78057 1.52261C1.40941 1.91289 1.14225 2.39882 1.00582 2.93179C0.657288 4.93347 0.488155 6.96513 0.500644 9.00005C0.488155 11.035 0.657288 13.0666 1.00582 15.0683C1.14225 15.6013 1.40941 16.0872 1.78057 16.4775C2.15172 16.8678 2.61385 17.1487 3.12071 17.2921C4.98729 17.8233 12.4879 17.8233 12.4879 17.8233C12.4879 17.8233 19.9884 17.8233 21.855 17.2921C22.3619 17.1487 22.824 16.8678 23.1951 16.4775C23.5663 16.0872 23.8335 15.6013 23.9699 15.0683C24.3184 13.0666 24.4876 11.035 24.4751 9.00005C24.4876 6.96513 24.3184 4.93347 23.9699 2.93179ZM10.0904 12.7815V5.21864L16.3152 9.00005L10.0904 12.7815Z" fill="#E42F08"></path>
  </symbol>

  <!-- Header   -->
  
  <symbol fill="none" xmlns="http://www.w3.org/2000/svg" viewBox="0 0 24 24" id="search">
    <g clip-path="url(#clip0_964_9253)">
      <path fill-rule="evenodd" clip-rule="evenodd" d="M17.1901 15.4783L23.6458 21.934C23.8727 22.161 24.0001 22.4689 24 22.7899C23.9999 23.111 23.8723 23.4188 23.6452 23.6457C23.4181 23.8726 23.1102 24 22.7892 23.9999C22.4682 23.9998 22.1604 23.8722 21.9335 23.6451L15.4778 17.1894C13.5479 18.6841 11.1211 19.3875 8.69104 19.1565C6.26097 18.9255 4.01018 17.7774 2.39656 15.9458C0.782936 14.1142 -0.0723147 11.7366 0.00479537 9.29681C0.0819054 6.857 1.08558 4.5382 2.81165 2.81214C4.53771 1.08607 6.85651 0.0823937 9.29632 0.00528365C11.7361 -0.0718264 14.1137 0.783424 15.9453 2.39705C17.7769 4.01067 18.925 6.26146 19.156 8.69153C19.387 11.1216 18.6836 13.5484 17.1889 15.4783H17.1901ZM9.60045 16.7994C11.5099 16.7994 13.3412 16.0409 14.6914 14.6907C16.0416 13.3405 16.8001 11.5092 16.8001 9.59974C16.8001 7.69027 16.0416 5.859 14.6914 4.5088C13.3412 3.1586 11.5099 2.40007 9.60045 2.40007C7.69098 2.40007 5.85971 3.1586 4.50951 4.5088C3.15932 5.859 2.40078 7.69027 2.40078 9.59974C2.40078 11.5092 3.15932 13.3405 4.50951 14.6907C5.85971 16.0409 7.69098 16.7994 9.60045 16.7994Z" fill="#737373"></path>
    </g>
    <defs>
      <clipPath id="clip0_964_9253">
        <rect width="24" height="23.9997" fill="white"></rect>
      </clipPath>
    </defs>
  </symbol>
  <symbol fill="none" xmlns="http://www.w3.org/2000/svg" viewBox="0 0 24 23" id="shopping-cart">
    <g clip-path="url(#clip0_964_9255)">
      <path d="M8.00002 22.4002C8.88368 22.4002 9.60003 21.6839 9.60003 20.8002C9.60003 19.9165 8.88368 19.2002 8.00002 19.2002C7.11637 19.2002 6.40002 19.9165 6.40002 20.8002C6.40002 21.6839 7.11637 22.4002 8.00002 22.4002Z" fill="#737373"></path>
      <path d="M19.2 22.4002C20.0836 22.4002 20.8 21.6839 20.8 20.8002C20.8 19.9165 20.0836 19.2002 19.2 19.2002C18.3163 19.2002 17.6 19.9165 17.6 20.8002C17.6 21.6839 18.3163 22.4002 19.2 22.4002Z" fill="#737373"></path>
      <path d="M22.4 4.00016H4.656L4 0.640163C3.9626 0.456742 3.86206 0.292245 3.71589 0.175305C3.56971 0.0583653 3.38716 -0.00361159 3.2 0.000162751H0V1.60016H2.544L5.6 16.9602C5.6374 17.1436 5.73794 17.3081 5.88411 17.425C6.03029 17.542 6.21284 17.6039 6.4 17.6002H20.8V16.0002H7.056L6.4 12.8002H20.8C20.9849 12.8047 21.1657 12.745 21.3116 12.6312C21.4574 12.5174 21.5594 12.3566 21.6 12.1762L23.2 4.97616C23.2268 4.85746 23.2262 4.73421 23.1982 4.61579C23.1702 4.49737 23.1155 4.38689 23.0384 4.29278C22.9612 4.19867 22.8636 4.12339 22.753 4.07268C22.6424 4.02198 22.5217 3.99717 22.4 4.00016ZM20.16 11.2002H6.096L4.976 5.60016H21.4L20.16 11.2002Z" fill="#737373"></path>
    </g>
    <defs>
      <clipPath id="clip0_964_9255">
        <rect width="24" height="22.4002" fill="white"></rect>
      </clipPath>
    </defs>
  </symbol>
  <symbol fill="none" xmlns="http://www.w3.org/2000/svg" viewBox="0 0 24 14" id="burger-grey">
    <path d="M0.571411 0H23.4285V2.28571H0.571411V0ZM6.2857 5.71429H23.4285V8H6.2857V5.71429ZM13.4286 11.4286H23.4285V13.7143H13.4286V11.4286Z" fill="#737373"></path>
  </symbol>
   <symbol fill="none" xmlns="http://www.w3.org/2000/svg" viewBox="0 0 24 14" id="burger-black">
    <g clip-path="url(#clip0_964_9229)">
      <path d="M0.571533 0H23.4287V2.28571H0.571533V0ZM6.28582 5.71429H23.4287V8H6.28582V5.71429ZM13.4287 11.4286H23.4287V13.7143H13.4287V11.4286Z" fill="#252B42"></path>
    </g>
    <defs>
      <clipPath id="clip0_964_9229">
        <rect width="24" height="13.7143" fill="white"></rect>
      </clipPath>
    </defs>
  </symbol>
</svg>